<?xml version="1.0"?>
<svg xmlns="http://www.w3.org/2000/svg" viewBox="0 0 50 50" enable-background="new 0 0 50 50">
    <path style="text-indent:0;text-align:start;line-height:normal;text-transform:none;block-progression:tb;-inkscape-font-specification:Bitstream Vera Sans" d="M 6 0 L 6 1 L 6 47 L 6 48 L 7 48 L 34 48 C 35.67259 49.258578 37.75197 50 40 50 C 45.511003 50 50 45.511003 50 40 C 50 35.915953 47.519577 32.394233 44 30.84375 L 44 15 L 44 14.59375 L 43.71875 14.28125 L 29.71875 0.28125 L 29.40625 0 L 29 0 L 7 0 L 6 0 z M 8 2 L 28 2 L 28 15 L 28 16 L 29 16 L 42 16 L 42 30.21875 C 41.349834 30.08524 40.688875 30 40 30 C 34.488997 30 30 34.488997 30 40 C 30 42.254919 30.765672 44.324779 32.03125 46 L 8 46 L 8 2 z M 30 3.4375 L 40.5625 14 L 30 14 L 30 3.4375 z M 40 32 C 44.430123 32 48 35.569877 48 40 C 48 44.430123 44.430123 48 40 48 C 35.569877 48 32 44.430123 32 40 C 32 35.569877 35.569877 32 40 32 z M 39 35 L 39 39 L 35 39 L 35 41 L 39 41 L 39 45 L 41 45 L 41 41 L 45 41 L 45 39 L 41 39 L 41 35 L 39 35 z" overflow="visible" enable-background="accumulate" font-family="Bitstream Vera Sans"/>
</svg>
