<svg xmlns="http://www.w3.org/2000/svg" viewBox="0 0 50 50">
    <path style="line-height:normal;text-indent:0;text-align:start;text-decoration-line:none;text-decoration-style:solid;text-decoration-color:#000;text-transform:none;block-progression:tb;isolation:auto;mix-blend-mode:normal" d="M 5 4 C 3.3550302 4 2 5.3550302 2 7 L 2 43 L 2.0136719 43 C 2.0189875 44.607748 3.3343104 46 5.0019531 46 L 41.488281 46 C 43.419373 46 45.086868 44.605028 45.425781 42.703125 L 50 17.087891 L 50 17 C 50 15.354937 48.645063 14 47 14 L 10 14 C 8.3549372 14 7 15.354937 7 17 L 7.0175781 16.810547 L 4 32.390625 L 4 7 C 4 6.4349698 4.4349698 6 5 6 L 14 6 C 13.93925 6 14.06114 6.00701 14.308594 6.2871094 C 14.556051 6.5672101 14.857231 7.0324412 15.169922 7.53125 C 15.482613 8.0300588 15.806429 8.562864 16.212891 9.03125 C 16.619352 9.499636 17.178927 10 18 10 L 42 10 C 42.56503 10 43 10.43497 43 11 L 43 12 L 45 12 L 45 11 C 45 9.3550302 43.64497 8 42 8 L 18 8 C 18.08657 8 17.96899 8.000364 17.724609 7.71875 C 17.480227 7.437136 17.179419 6.9699412 16.865234 6.46875 C 16.55105 5.9675588 16.221777 5.4327899 15.806641 4.9628906 C 15.391504 4.4929914 14.818754 4 14 4 L 5 4 z M 10 16 L 47 16 C 47.552028 16 47.971785 16.425526 47.988281 16.972656 L 43.457031 42.351562 C 43.285945 43.311661 42.46319 44 41.488281 44 L 5.0019531 44 C 4.3591308 44 3.9039393 43.458267 4.015625 42.826172 C 4.015625 42.826172 4.015625 42.824219 4.015625 42.824219 L 9 17.095703 L 9 17 C 9 16.437063 9.4370628 16 10 16 z" color="#000" font-weight="400" font-family="sans-serif" white-space="normal" overflow="visible"/>
</svg>
