<?xml version="1.0" encoding="iso-8859-1"?>
<!-- Generator: Adobe Illustrator 13.0.0, SVG Export Plug-In . SVG Version: 6.00 Build 14948)  -->
<!DOCTYPE svg PUBLIC "-//W3C//DTD SVG 1.1//EN" "http://www.w3.org/Graphics/SVG/1.1/DTD/svg11.dtd">
<svg version="1.1" id="_x31_" xmlns="http://www.w3.org/2000/svg" xmlns:xlink="http://www.w3.org/1999/xlink" x="0px" y="0px"
	 width="300px" height="300px" viewBox="0 0 300 300" style="enable-background:new 0 0 300 300;" xml:space="preserve">
<g>
	<rect x="-369" y="338" style="fill:#5A7282;" width="300" height="300"/>
	<path style="opacity:0.1;fill:#040000;enable-background:new    ;" d="M584,327.25V478H426.11l-57.63-57.63l-0.029-0.03
		l-12.541-12.54c-0.029-0.21-0.029-0.45-0.029-0.66V387.49l4.979-4.98l2.311-2.309l29.609-29.61l4.98-4.979l25.74-25.74l0.57-0.57
		l43.649-43.649l17.341-17.34l6.6-6.601l8.07-8.069l0.33-0.33L584,327.25z"/>
	<g>
		<path style="fill:#D6C282;" d="M258.436,66.99v194.946c0,10.038-8.474,18.183-18.964,18.183H63.16
			c-0.577,0-1.153-0.04-1.729-0.083c-8.392-0.739-15.179-6.664-16.866-14.438c-0.165-0.905-0.288-1.811-0.33-2.756
			c-0.042-0.286-0.042-0.616-0.042-0.905V66.99c0-1.275,0.123-2.468,0.371-3.662c0.905-4.114,3.208-7.693,6.458-10.325
			c1.15-0.905,2.386-1.729,3.785-2.344c2.508-1.193,5.347-1.852,8.35-1.852H239.47c4.032,0,7.816,1.193,10.901,3.291
			c1.563,1.069,2.961,2.345,4.114,3.784c0.205,0.247,0.411,0.535,0.616,0.823c0.577,0.823,1.069,1.645,1.522,2.55
			c0.164,0.33,0.329,0.658,0.452,0.987c0.451,1.11,0.822,2.263,1.028,3.456c0.082,0.37,0.165,0.74,0.205,1.151
			C258.394,65.55,258.436,66.249,258.436,66.99z"/>
		<path style="fill:#313333;" d="M94.793,48.808v231.312H62.378c-0.288,0-0.618,0-0.905-0.043
			c-8.392-0.41-15.262-6.497-16.907-14.479c-0.165-0.905-0.288-1.811-0.33-2.756c-0.042-0.289-0.042-0.618-0.042-0.905V66.99
			c0-1.275,0.123-2.468,0.371-3.662c0.864-4.237,3.208-7.939,6.458-10.571c1.193-0.906,2.468-1.728,3.866-2.304
			c1.678-0.792,3.542-1.21,5.467-1.427c0.403-0.057,0.808-0.1,1.219-0.132c0.272-0.012,0.527-0.086,0.802-0.086L94.793,48.808
			L94.793,48.808z"/>
		<polygon style="fill:#B2536C;" points="137.681,142.651 119.482,133.623 101.282,142.651 101.282,48.812 137.681,48.812 		"/>
		<path style="fill:#C1C47F;" d="M237.405,37.25H103.421H71.889c-9.779,0-17.71,8.15-17.71,18.2v7.992
			c0,10.049,7.931,18.199,17.71,18.199h31.531h133.984c9.777,0,17.709-8.15,17.709-18.199V55.45
			C255.114,45.401,247.182,37.25,237.405,37.25z"/>
		<polygon style="fill:#F2F2F2;" points="255.114,57.851 103.421,57.851 54.179,57.851 54.179,263.011 103.421,263.011 
			255.114,263.011 		"/>
		
			<linearGradient id="SVGID_1_" gradientUnits="userSpaceOnUse" x1="344.7229" y1="-610.7329" x2="687.6506" y2="-610.7329" gradientTransform="matrix(0.5859 0 0 -0.5859 -147.807 -95.9121)">
			<stop  offset="0" style="stop-color:#FFFFFF"/>
			<stop  offset="0.9952" style="stop-color:#F6F5F5"/>
		</linearGradient>
		<path style="fill:url(#SVGID_1_);" d="M245.165,270.622H61.119c-3.818,0-6.94-3.123-6.94-6.939v-3.484
			c0-3.818,3.124-6.941,6.94-6.941h187.053c3.818,0,6.941,3.123,6.941,6.941v0.478C255.114,266.146,250.637,270.622,245.165,270.622
			z"/>
		<path style="fill:#D6C282;" d="M250.373,44.899v194.905c0,5.348-2.304,10.161-5.966,13.452c-3.208,3.002-7.528,4.772-12.258,4.772
			H62.378c-2.55,0-4.936-0.535-7.116-1.481c-0.371-0.123-0.742-0.289-1.07-0.492c-1.111-0.576-2.18-1.234-3.168-2.017
			c-0.123-0.123-0.288-0.206-0.411-0.33c-0.905-0.781-1.729-1.644-2.468-2.592c-2.468-3.086-3.949-7.033-3.949-11.313V44.899
			c0-10.079,8.144-18.224,18.182-18.224h169.771c9.379,0,17.154,7.117,18.14,16.332c0,0,0,0,0,0.041
			C250.331,43.666,250.373,44.283,250.373,44.899z"/>
		<path style="fill:#C9D2A8;" d="M101.638,26.687v231.327H51.037V44.886c0-10.049,8.151-18.199,18.199-18.199H101.638z"/>
		<path style="fill:#35464A;" d="M94.793,26.677v231.353H44.196V44.899c0-10.079,8.144-18.224,18.182-18.224h32.415V26.677z"/>
		<polygon style="fill:#DF2F5B;" points="187.951,88.41 167.613,77.395 147.27,88.41 147.27,26.687 187.951,26.687 		"/>
		<path style="fill:#F7D76D;" d="M176.82,50.864h-6.952l-0.657-2.057l-1.564-4.772h-0.081l-1.521,4.772l-0.659,2.057h-6.992v0.083
			l5.635,4.155l-0.904,2.756l-1.316,4.155h0.082l5.595-4.155l0.123-0.082l0.123,0.082l5.595,4.155h0.082l-1.316-4.155l-0.904-2.756
			l5.635-4.155V50.864z"/>
	</g>
	<path style="opacity:0.04;fill:#040000;enable-background:new    ;" d="M612.436,80.076v142.17c0,7.32-6.18,13.26-13.83,13.26
		h-129.15c-0.209,0-0.449,0-0.66-0.029c-6.12-0.301-11.13-4.74-12.33-10.561c-0.12-0.66-0.209-1.32-0.24-2.01
		c-0.029-0.209-0.029-0.449-0.029-0.66v-5.16l2.88-2.73l2.1-1.979l2.311-2.191l29.609-28.02l4.98-4.709l91.649-86.701l16.831-15.93
		l1.47-1.41l1.53-1.44l0.45-0.42v1.02c0.42,0.6,0.779,1.2,1.109,1.86c0.12,0.24,0.24,0.48,0.33,0.72c0.33,0.81,0.6,1.65,0.75,2.52
		c0.06,0.27,0.12,0.54,0.149,0.84C612.406,79.026,612.436,79.536,612.436,80.076z"/>
</g>
</svg>
